<svg width="54" height="54" fill="none" xmlns="http://www.w3.org/2000/svg"><path d="M20.039 47.747c2.128.643 4.278 1.02 6.561 1.02A22.167 22.167 0 1 0 4.433 26.6c0 9.42 5.919 17.512 14.276 20.704-.2-1.73-.4-4.589 0-6.562l2.549-10.95s-.643-1.286-.643-3.325c0-3.059 1.906-5.342 4.079-5.342 1.906 0 2.793 1.396 2.793 3.192 0 1.906-1.264 4.633-1.907 7.248-.377 2.173 1.153 4.079 3.37 4.079 3.945 0 7.004-4.212 7.004-10.152 0-5.32-3.812-8.956-9.288-8.956-6.25 0-9.93 4.655-9.93 9.554 0 1.907.62 3.835 1.64 5.099.2.133.2.31.133.642l-.643 2.417c0 .376-.244.51-.62.243-2.838-1.241-4.478-5.275-4.478-8.534 0-7.005 4.965-13.366 14.541-13.366 7.626 0 13.566 5.475 13.566 12.746 0 7.625-4.721 13.743-11.482 13.743-2.15 0-4.256-1.153-5.01-2.505l-1.485 5.253c-.51 1.907-1.906 4.456-2.86 5.985v-.066Z" fill="#CCC"/></svg>