<svg width="54" height="54" fill="none" xmlns="http://www.w3.org/2000/svg"><path fill-rule="evenodd" clip-rule="evenodd" d="M26.657 4.433c-12.211 0-22.109 9.898-22.109 22.11 0 9.766 6.333 18.054 15.12 20.98 1.106.2 1.505-.48 1.505-1.066 0-.525-.017-1.918-.024-3.76-6.151 1.335-7.45-2.966-7.45-2.966-1.002-2.553-2.454-3.234-2.454-3.234-2.006-1.372.153-1.34.153-1.34 2.22.155 3.385 2.278 3.385 2.278 1.972 3.378 5.178 2.403 6.432 1.838.202-1.43.778-2.405 1.408-2.957-4.908-.557-10.068-2.454-10.068-10.929 0-2.409.862-4.386 2.27-5.93-.224-.56-.989-2.81.22-5.851 0 0 1.854-.596 6.077 2.263a21.242 21.242 0 0 1 5.533-.745c1.87.003 3.73.254 5.533.745 4.225-2.862 6.078-2.263 6.078-2.263 1.208 3.041.45 5.291.22 5.852 1.418 1.543 2.27 3.518 2.27 5.93 0 8.496-5.166 10.362-10.091 10.91.787.683 1.496 2.03 1.496 4.092 0 2.957-.026 5.342-.026 6.067 0 .592.394 1.279 1.523 1.062 8.782-2.93 15.108-11.212 15.108-20.977 0-12.211-9.897-22.109-22.109-22.109Z" fill="#CCC"/></svg>