<svg width="54" height="54" fill="none" xmlns="http://www.w3.org/2000/svg"><path d="M43.52 17.727c.029.388.029.773.029 1.16 0 11.803-8.985 25.404-25.403 25.404-5.059 0-9.758-1.465-13.713-4.01.718.082 1.41.111 2.157.111a17.89 17.89 0 0 0 11.086-3.815 8.947 8.947 0 0 1-8.35-6.19c.551.081 1.106.137 1.686.137.8 0 1.605-.111 2.352-.304a8.927 8.927 0 0 1-7.16-8.762v-.111a9.01 9.01 0 0 0 4.035 1.132 8.916 8.916 0 0 1-3.981-7.434c0-1.658.44-3.179 1.214-4.505a25.397 25.397 0 0 0 18.412 9.344 10.141 10.141 0 0 1-.222-2.046 8.924 8.924 0 0 1 8.929-8.93 8.904 8.904 0 0 1 6.524 2.82 17.637 17.637 0 0 0 5.666-2.156 8.91 8.91 0 0 1-3.926 4.92 17.894 17.894 0 0 0 5.14-1.383 19.163 19.163 0 0 1-4.475 4.618Z" fill="#CCC"/></svg>